<svg viewBox="0 0 20 20"  class="w-5 h-5 mr-3"><path fill="grey" d="M18.2 13.7C16.8 16.8 13.7 19 10 19s-6.9-2.2-8.3-5.6h.8l.4-1h2.4l.4 1h2l-2.8-7H3.4L1.2 12c-.1-.7-.2-1.4-.2-2 0-5 4-9 9-9s9 4 9 9c0 .6-.1 1.2-.2 1.8-.2-.2-.5-.3-.7-.3-.6 0-1.1.5-1.1 1.1s.5 1.1 1.2 1.1c-.1 0-.1 0 0 0zm-3.6-.2h1.6V6.3h-1.6v7.2zM10.7 8c-2 0-2.8 1.6-2.8 2.8s.9 2.8 2.8 2.8 2.8-1.6 2.8-2.8c0-1.3-1-2.8-2.8-2.8zm0 4.1c-.7 0-1.3-.6-1.3-1.4 0-.8.6-1.4 1.3-1.4s1.3.7 1.3 1.4c0 .9-.6 1.4-1.3 1.4zM3.3 11l.8-2.4.8 2.4H3.3z"></path></svg>